<?xml version="1.0"?>
<svg xmlns="http://www.w3.org/2000/svg" xmlns:xlink="http://www.w3.org/1999/xlink" xmlns:svgjs="http://svgjs.com/svgjs" version="1.1" width="512" height="512" x="0" y="0" viewBox="0 0 74 74" style="enable-background:new 0 0 512 512" xml:space="preserve" class=""><g><path xmlns="http://www.w3.org/2000/svg" d="m37 6h34v2h-34z" fill="#00a1da" data-original="#000000" style="" class=""/><path xmlns="http://www.w3.org/2000/svg" d="m37 16h34v2h-34z" fill="#00a1da" data-original="#000000" style="" class=""/><path xmlns="http://www.w3.org/2000/svg" d="m37 26h34v2h-34z" fill="#00a1da" data-original="#000000" style="" class=""/><path xmlns="http://www.w3.org/2000/svg" d="m3 36h68v2h-68z" fill="#00a1da" data-original="#000000" style="" class=""/><path xmlns="http://www.w3.org/2000/svg" d="m3 46h68v2h-68z" fill="#00a1da" data-original="#000000" style="" class=""/><path xmlns="http://www.w3.org/2000/svg" d="m3 56h68v2h-68z" fill="#00a1da" data-original="#000000" style="" class=""/><path xmlns="http://www.w3.org/2000/svg" d="m3 66h68v2h-68z" fill="#00a1da" data-original="#000000" style="" class=""/><path xmlns="http://www.w3.org/2000/svg" d="m27.088 27.41-8.088-17.973-8.088 17.973-1.824-.82 9-20a1 1 0 0 1 1.824 0l9 20z" fill="#00a1da" data-original="#000000" style="" class=""/><path xmlns="http://www.w3.org/2000/svg" d="m14 18h9.875v2h-9.875z" fill="#00a1da" data-original="#000000" style="" class=""/></g></svg>
